<svg xmlns="http://www.w3.org/2000/svg" xmlns:xlink="http://www.w3.org/1999/xlink"  width="125" height="125" viewBox="0 0 503.16 512"><defs><clipPath id="a"><rect x="64.79" y="149.78" width="311.07" height="176.35" style="fill:none"/></clipPath><clipPath id="b"><rect x="64.79" y="149.78" width="311.07" height="176.35" style="fill:none"/></clipPath></defs><title>code4a</title><rect x="129.2" y="0.52" width="173.01" height="97.84" rx="13.92" ry="13.92" style="fill:#39b54a"/><path d="M198.05,28.59c.48,0,.73.29.73.87s-.69,1.45-2.07,2.57a16.74,16.74,0,0,1-4.77,2.66,14.57,14.57,0,0,1-5,1,9.58,9.58,0,0,1-6-2.1,7.23,7.23,0,0,1-2.71-6.09q0-7.28,6.49-14.17t12.5-6.89a4.9,4.9,0,0,1,3.6,1.34,4.25,4.25,0,0,1,1.35,3.12,13.61,13.61,0,0,1-.19,2.6,2.55,2.55,0,0,1-1.19,1.61,3.12,3.12,0,0,1-1.58.66,1,1,0,0,1-.74-.36,1.44,1.44,0,0,1-.32-1,9.86,9.86,0,0,1,.32-1.73,8.92,8.92,0,0,0,.31-1.92q0-1.83-1.65-1.83c-1.72,0-3.83,1-6.36,2.84A25.13,25.13,0,0,0,184.37,19a15.84,15.84,0,0,0-2.65,8.06,5.78,5.78,0,0,0,1.52,4.09,5.65,5.65,0,0,0,4.33,1.62,12.78,12.78,0,0,0,3.94-.78,17.69,17.69,0,0,0,4.25-2.09A8.57,8.57,0,0,1,198.05,28.59Z"/><path d="M222.9,24.93a2.21,2.21,0,0,1-1.71.48c-.32,0-.85,0-1.6-.12a17.52,17.52,0,0,0-1.82-.15h-1.23l-1,0h-.89l-1,0a5.39,5.39,0,0,0-.41,2.44,18.27,18.27,0,0,1-.1,2.57,6.35,6.35,0,0,0,0,1.43c0,.62-.31.93-1,.93a1.37,1.37,0,0,1-1-.3,1.68,1.68,0,0,1-.25-1.07c0-.27.1-1.21.32-2.82.1-.78.19-1.84.29-3.18-.79-.07-2-.11-3.59-.11a4.65,4.65,0,0,0-1.1.18,5.36,5.36,0,0,1-.95.16,1.32,1.32,0,0,1-.9-.36,1.13,1.13,0,0,1-.4-.86,1.38,1.38,0,0,1,.27-.76.75.75,0,0,1,.6-.41,8.11,8.11,0,0,1,1.36.13,7.89,7.89,0,0,0,1.08.13l3.75-.18a4.83,4.83,0,0,0,.22-1.41q0-1-.15-3.3c0-.65-.07-1.21-.07-1.67a2.27,2.27,0,0,1,.38-1.23,1.12,1.12,0,0,1,1-.61q.28,0,.66.6a2,2,0,0,1,.36.91c0,.63-.06,1.46-.17,2.5s-.17,1.76-.17,2.14a14.06,14.06,0,0,0,.12,1.83,9.58,9.58,0,0,0,2.17.13l4.27-.07a4.4,4.4,0,0,1,2.23.36C222.74,23.52,222.9,24.07,222.9,24.93Z"/><path d="M244.67,24.93a2.22,2.22,0,0,1-1.72.48c-.32,0-.85,0-1.6-.12a17.52,17.52,0,0,0-1.82-.15H238.3l-1,0h-.89l-.95,0a5.53,5.53,0,0,0-.41,2.44,20.92,20.92,0,0,1-.09,2.57,5.71,5.71,0,0,0,0,1.43q.06.93-1,.93a1.38,1.38,0,0,1-1.06-.3,1.74,1.74,0,0,1-.25-1.07c0-.27.11-1.21.32-2.82q.15-1.17.3-3.18c-.8-.07-2-.11-3.6-.11a4.5,4.5,0,0,0-1.09.18,5.66,5.66,0,0,1-1,.16,1.33,1.33,0,0,1-.91-.36,1.16,1.16,0,0,1-.4-.86,1.38,1.38,0,0,1,.27-.76.75.75,0,0,1,.61-.41,8.31,8.31,0,0,1,1.36.13,7.56,7.56,0,0,0,1.08.13l3.74-.18a4.52,4.52,0,0,0,.22-1.41q0-1-.15-3.3c0-.65-.07-1.21-.07-1.67a2.35,2.35,0,0,1,.38-1.23,1.12,1.12,0,0,1,1-.61q.3,0,.66.6a2,2,0,0,1,.36.91,24.65,24.65,0,0,1-.16,2.5c-.12,1-.17,1.76-.17,2.14a14,14,0,0,0,.11,1.83,9.69,9.69,0,0,0,2.18.13l4.26-.07a4.38,4.38,0,0,1,2.23.36Q244.67,23.64,244.67,24.93Z"/><rect x="82.63" y="91.5" width="390.95" height="420.05" rx="16" ry="16" style="fill:#3fa9f5;opacity:0.5"/><rect x="402.22" y="167.34" width="101.36" height="167" rx="13.34" ry="13.34" style="fill:#f15a24"/><path d="M491.64,227a1.42,1.42,0,0,1-.41,1,1.22,1.22,0,0,1-.91.44,96.28,96.28,0,0,1-12.15-1q-7.57-1-11.23-3.32a7,7,0,0,1-3.65-6.16,10.84,10.84,0,0,1,2.25-6.18c1.5-2.13,2.78-3.2,3.82-3.2s1.64.59,1.64,1.77c0,.38-.34.9-1,1.57q-3.44,3.3-3.44,6.09,0,2.43,2.69,3.93c1.79,1,4.8,1.8,9,2.41a83.08,83.08,0,0,0,11.87.92,1.39,1.39,0,0,1,1.06.59A1.89,1.89,0,0,1,491.64,227Z"/><path d="M470.31,244.83a22.65,22.65,0,0,1-5.25-5,8,8,0,0,1-1.75-4.51,3,3,0,0,1,1.21-2.39,4.68,4.68,0,0,1,3.11-1q4.89,0,10.54,4.22t5.65,8.39a2.41,2.41,0,0,1-1.78,2.25.78.78,0,0,0-.6.73c0,1-.38,1.44-1.15,1.44a9.56,9.56,0,0,1-1.59-.18,52.9,52.9,0,0,0-7.74-1q-4.5,0-5.4,1.65a1.29,1.29,0,0,1-1.1.8,1.57,1.57,0,0,1-1.16-.78,2.49,2.49,0,0,1-.59-1.49q0-1.38,2-2.28A13.93,13.93,0,0,1,470.31,244.83Zm10.48-1.1q0-2.37-4.61-5.51t-7.64-3.15c-1.43,0-2.14.46-2.14,1.37,0,1.32,1.38,3.14,4.13,5.48s5.29,3.5,7.6,3.5C479.9,245.42,480.79,244.86,480.79,243.73Z"/><path d="M463.31,257.77a24,24,0,0,0,5.58-1.53q8.4-3,11.69-3c1.75,0,2.63.56,2.63,1.69s-.78,1.65-2.35,1.65a27.49,27.49,0,0,0-2.95.12,29.67,29.67,0,0,0-3.78.85c-1.83.49-3.52,1-5.09,1.62-.82.3-1.44.51-1.88.64.4.26.95.58,1.64,1q5.51,3.17,8.49,5.05a37.2,37.2,0,0,1,4.34,3.06,7.5,7.5,0,0,1,1.63,1.74,2.57,2.57,0,0,1,.27,1.13,1.35,1.35,0,0,1-.52,1.11,1.91,1.91,0,0,1-1.2.4c-.58,0-1.21-.49-1.9-1.47a21.77,21.77,0,0,0-4.85-4.08,92,92,0,0,0-9.93-5.82c-2-1.07-3.05-1.89-3.05-2.46S462.49,258.4,463.31,257.77Z"/><path d="M470.31,286.52a22.65,22.65,0,0,1-5.25-5,8,8,0,0,1-1.75-4.51,3,3,0,0,1,1.21-2.39,4.68,4.68,0,0,1,3.11-1q4.89,0,10.54,4.22t5.65,8.39A2.41,2.41,0,0,1,482,288.5a.78.78,0,0,0-.6.73c0,1-.38,1.44-1.15,1.44a9.56,9.56,0,0,1-1.59-.18,52.9,52.9,0,0,0-7.74-1q-4.5,0-5.4,1.65a1.28,1.28,0,0,1-1.1.79,1.56,1.56,0,0,1-1.16-.77,2.49,2.49,0,0,1-.59-1.49q0-1.38,2-2.28A13.93,13.93,0,0,1,470.31,286.52Zm10.48-1.1q0-2.37-4.61-5.51t-7.64-3.15c-1.43,0-2.14.46-2.14,1.37,0,1.32,1.38,3.14,4.13,5.48s5.29,3.5,7.6,3.5C479.9,287.11,480.79,286.55,480.79,285.42Z"/><rect x="2.58" y="42.5" width="446" height="469" rx="16" ry="16" style="fill:#3fa9f5"/><g style="clip-path:url(#a)"><g style="clip-path:url(#b)"><path d="M307.89,308.4c-14.38,17.27-42.79,13.37-51.14-7l-10.92-26.69-6.3-15.41c-10.43-25.49,11.53-52.36,39.64-48.5L297,213.24l67.35,9.25a7.45,7.45,0,0,1,5,12.13L326.71,285.8Z" style="fill:#fff3ad"/><path d="M310.43,295.61l-38.27-56.29-60.88-89.54-36.2,39.75-16.84-4.48-69.9-18.61L99.45,235.6l5,31.46L64.79,310.68l134.12,9.09,93,6.3c16.85,1.15,27.76-16.83,18.49-30.46" style="fill:#8c6239"/><path d="M302.63,250.73a13.78,13.78,0,0,1-14-13.52,12.89,12.89,0,0,1,.24-2.49,18.89,18.89,0,0,0,9.78,2.71,18.53,18.53,0,0,0,15.4-8,13.22,13.22,0,0,1,2.58,7.8,13.78,13.78,0,0,1-14,13.52"/><path d="M313.7,233.29a11,11,0,0,1,.72,3.93,11.81,11.81,0,0,1-23.54.88,21.28,21.28,0,0,0,7.77,1.47,21,21,0,0,0,15.05-6.28m-.1-7.59a16.23,16.23,0,0,1-15,9.59,16.43,16.43,0,0,1-11-4.13,15.14,15.14,0,0,0-1.26,6.06c0,8.64,7.26,15.64,16.21,15.64s16.21-7,16.21-15.64a15.33,15.33,0,0,0-5.24-11.52"/><path d="M357.72,237.7a18.77,18.77,0,0,1-11-3.82c-2.7-2.15-4.12-4.89-4-7.69.24-5.8,6.86-10.35,15.07-10.35l.85,0a18.74,18.74,0,0,1,11,3.82c2.7,2.16,4.12,4.89,4,7.69-.23,5.8-6.85,10.35-15.07,10.35Z"/><path d="M357.77,218h0l.76,0a16.72,16.72,0,0,1,9.69,3.32c1.25,1,3.32,3.1,3.2,6-.18,4.57-5.95,8.29-12.85,8.29h-.76c-7.19-.28-13.09-4.54-12.9-9.3.19-4.57,6-8.29,12.86-8.29m0-4.27c-9.34,0-17,5.41-17.28,12.39-.3,7.21,7.38,13.36,17.14,13.73.31,0,.62,0,.94,0,9.34,0,17-5.41,17.28-12.39.29-7.21-7.38-13.36-17.14-13.73l-.94,0"/><path d="M199.31,218.23h0a8.68,8.68,0,0,1-8.37,9,8.77,8.77,0,0,1-9.3-8.09,8.85,8.85,0,0,1,17.67-.9" style="fill:#42210b"/><path d="M240.36,302.37h0a6.77,6.77,0,0,1-8.89-2.91l-9.8-19.16a6.34,6.34,0,0,1,3-8.59,6.8,6.8,0,0,1,8.9,2.92l9.79,19.16a6.33,6.33,0,0,1-3,8.58" style="fill:#42210b"/><path d="M141.85,301.41h0a4.55,4.55,0,0,1-6.17-1l-12.74-17.46a4.2,4.2,0,0,1,1.07-6,4.54,4.54,0,0,1,6.17,1l12.74,17.46a4.2,4.2,0,0,1-1.07,6" style="fill:#42210b"/><path d="M172.77,255.72h0a6.8,6.8,0,0,1,9.07,2.35L197.33,284a6.3,6.3,0,0,1-2.43,8.76,6.8,6.8,0,0,1-9.07-2.35l-15.49-25.9a6.3,6.3,0,0,1,2.43-8.76" style="fill:#42210b"/><path d="M248.43,253.63h0A11.37,11.37,0,0,1,233,251l-10.19-14a10.46,10.46,0,0,1,2.67-14.88,11.36,11.36,0,0,1,15.42,2.58l10.2,14a10.49,10.49,0,0,1-2.67,14.89" style="fill:#42210b"/><path d="M152.23,247.46l-7.2,2.59c-2.47.89-5.87-1.91-7.54-6.24l-11.44-29.53c-1.67-4.33-1-8.6,1.45-9.49l4.17,4.94c2.48-.89,1.56-5.49,3.24-1.17L153.68,238c1.68,4.33-7.81-1.11-1.45,9.49" style="fill:#42210b"/></g></g><path d="M124.75,425.49c.93,0,1.39.55,1.39,1.65s-1.32,2.78-4,4.91a31.55,31.55,0,0,1-9.12,5.08,27.85,27.85,0,0,1-9.48,1.89,18.27,18.27,0,0,1-11.47-4q-5.18-4-5.17-11.64,0-13.89,12.39-27.06t23.88-13.17a9.34,9.34,0,0,1,6.88,2.56,8.14,8.14,0,0,1,2.58,6,25.86,25.86,0,0,1-.37,5,4.86,4.86,0,0,1-2.26,3.08,6.1,6.1,0,0,1-3,1.25,1.82,1.82,0,0,1-1.42-.69,2.66,2.66,0,0,1-.61-1.85,17.83,17.83,0,0,1,.61-3.3,17.35,17.35,0,0,0,.6-3.67c0-2.33-1.06-3.5-3.16-3.5q-4.92,0-12.15,5.44a48.39,48.39,0,0,0-12.29,13.8q-5,8.35-5,15.4a11,11,0,0,0,2.9,7.8c1.93,2.08,4.69,3.11,8.27,3.11a24.43,24.43,0,0,0,7.52-1.49,33.81,33.81,0,0,0,8.13-4Q124.07,425.5,124.75,425.49Z"/><path d="M147.48,437.58a10.27,10.27,0,0,1-8-3.57,12.84,12.84,0,0,1-3.16-8.83q0-8.85,6.16-17.45t14.78-8.6a11.49,11.49,0,0,1,9.23,4.22A15.17,15.17,0,0,1,170,413.41q0,8.93-7.31,16.55T147.48,437.58Zm-4.95-13.29a9.81,9.81,0,0,0,1.52,5.67,4.64,4.64,0,0,0,4,2.19q5.3,0,10.63-5.61A17.69,17.69,0,0,0,164,414.06a10.86,10.86,0,0,0-2-6.85,6.61,6.61,0,0,0-5.5-2.62q-5.72,0-9.83,6.78T142.53,424.29Z"/><path d="M203.77,421.65A43.35,43.35,0,0,1,193.67,433q-5.32,4-9.81,4a6.59,6.59,0,0,1-5.46-2.56,10.74,10.74,0,0,1-2-6.81q0-8.69,7.31-17.82t15.77-9.13a9.74,9.74,0,0,1,6.86,3.05l5-22.45a4.45,4.45,0,0,1,2-3.09,5.28,5.28,0,0,1,2.26-.79q2.47,0,2.48,4.26a34.88,34.88,0,0,1-1.63,5.63,161.83,161.83,0,0,0-4.93,18.56,90,90,0,0,0-2.33,17.66c0,4.57,1,6.86,3.1,6.86a8,8,0,0,0,4.12-1.27,3,3,0,0,1,1.67-.62c.76,0,1.14.48,1.14,1.45q0,1.74-3.18,4.05a11.06,11.06,0,0,1-6.53,2.3q-5.86,0-5.86-10.92C203.6,424.15,203.65,422.91,203.77,421.65Zm-4.66-16.07q-5.76,0-11.41,7.54T182,427q0,4.29,3,4.29c1.85,0,4.09-.94,6.74-2.82a35.31,35.31,0,0,0,8.16-9q4.18-6.17,4.19-9.25a4.72,4.72,0,0,0-1.44-3.11A4.6,4.6,0,0,0,199.11,405.58Z"/><path d="M256.87,424.22q0,3.51-6.42,8.45t-13.25,4.94q-5.72,0-8.83-3.26t-3.12-9.1q0-9.81,6.87-18.67t15-8.86a5.9,5.9,0,0,1,4.35,1.68,5.52,5.52,0,0,1,1.69,4.05q0,5.3-5.37,10.13a68.72,68.72,0,0,1-14.37,9.51,2.76,2.76,0,0,0-1.85,2.4,6.2,6.2,0,0,0,1.71,4.57,6.84,6.84,0,0,0,5.05,1.71q7.65,0,15.61-8.17c.79-.75,1.38-1.13,1.78-1.13C256.49,422.47,256.87,423.06,256.87,424.22Zm-24.72-5.35q15.09-8.65,15.08-13.91c0-1.37-.64-2-1.92-2q-3.27,0-7.38,4.63A26.47,26.47,0,0,0,232.15,418.87Z"/><path d="M306.23,419.42a30.66,30.66,0,0,0-11.8-1.34,25.27,25.27,0,0,0-1.18,7.31l0,1.54v1.41l0,1.55a17,17,0,0,1,0,1.8c0,.31.29.84.93,1.6a3.42,3.42,0,0,1,.92,1.5,3.58,3.58,0,0,1-1.15,2.29,3.21,3.21,0,0,1-2.23,1.25c-1.87,0-3.11-.42-3.73-1.25a6.3,6.3,0,0,1-.93-3.76c0-.89.1-2.3.29-4.22s.27-3.25.32-4.19a35.22,35.22,0,0,1,.85-6.42,17.3,17.3,0,0,0-2.52-.14,51.08,51.08,0,0,0-12.27,1.2,36.65,36.65,0,0,1-9.25,1.34c-1.14,0-2.42-.77-3.84-2.33q1.6-4.26,17.39-16.31,5.06-3.81,8.18-6.55a86.4,86.4,0,0,1,7.29-5.8q4-2.89,4.73-2.89,2.88,0,2.88,1.41-.24,1-2,7.14-3.09,11.7-3.91,17.09c1.54.58,4.34.86,8.4.86h2.45a4.5,4.5,0,0,1,3,.81c.63.54.94,1.68.94,3.41a1.89,1.89,0,0,1-.64,1.41,2,2,0,0,1-1.46.62A3.66,3.66,0,0,1,306.23,419.42Zm-12.91-23c-.88.84-2.89,2.47-6,4.87a55.36,55.36,0,0,0-5.59,4.71,73.34,73.34,0,0,1-10.42,8.47c0,.35.22.52.64.52.93-.37,4.4-.74,10.42-1.13a41.37,41.37,0,0,0,7.44-1,37.13,37.13,0,0,1,1-4.94Q293.32,398.65,293.32,396.42Z"/><path d="M347.2,386.74c.21.16.32.72.32,1.68a6,6,0,0,1-.32,2.23l.46,1.44a57.18,57.18,0,0,0,2.32,6.66c.94,2.34,1.88,4.84,2.8,7.52a115.72,115.72,0,0,0,6.6,15.81q3.44,6.57,6.28,9.25a20.23,20.23,0,0,1,2.22,2.32,2.5,2.5,0,0,1,.45,1.49,3.57,3.57,0,0,1-3.56,3.6q-4.56,0-11-13.83-2.6-5.46-3.12-5.46a54.75,54.75,0,0,0-7.35,1A100.15,100.15,0,0,0,333,422.78a16.8,16.8,0,0,1-3.38.79,2.84,2.84,0,0,1-1.85-.86.69.69,0,0,0-.43-.13c-.52,0-1.65,1.48-3.38,4.46q-4.26,7.38-5.38,8.8a3.19,3.19,0,0,1-2.48,1.43,4,4,0,0,1-2.31-1.08,3,3,0,0,1-1.35-2.22,6,6,0,0,1,1.28-3q1.28-1.87,5.23-7.53a208.61,208.61,0,0,0,11.88-18.88q7.63-14,9.71-16.57c1.37-1.68,2.42-2.52,3.16-2.52A4.6,4.6,0,0,1,347.2,386.74ZM349.37,414q-1.25-2.75-3.66-10.06-2.64-7.8-3.35-9.47-2,4-6,11.29l-6.44,11.77a10.43,10.43,0,0,1,3.95-.89,41,41,0,0,0,4.27-.62Q347.8,414.16,349.37,414Z"/></svg>